<svg xmlns="http://www.w3.org/2000/svg" width="24" height="24" viewBox="0 0 24 24">
<path class="icon" fill="#363636" fill-rule="evenodd" d="M7.30005291,22.1932427 C3.74051449,21.540545 1.4317951,18.9347843 0.420548269,15.3858188 C0.232673234,14.7243178 0.16962792,14.0276038 0.0473200113,13.3484963 C0.046059105,12.9749872 0.0447981987,12.6002204 0.0422763862,12.2267113 C0.0952344498,11.8745815 0.136844357,11.5186788 0.201150577,11.1678066 C0.788732902,7.99360784 2.56030622,5.84938878 5.69996285,4.90744151 C5.69996285,4.90744151 8.53574106,4.25097093 10.0551331,5.07470318 C11.1458171,5.66577823 12.0688005,6.30212711 12.2844154,7.58740095 C12.4533769,8.59222853 12.1331067,9.50650845 11.6489187,10.3792874 C11.3463012,10.923831 11.0235091,11.467117 10.8305905,12.0544192 C10.5569738,12.8844395 10.8558086,13.8037498 11.5442634,14.3445206 C12.3209817,14.9544598 13.2036161,15.1418431 14.1228168,14.9494293 C14.9424059,14.7771373 15.5564672,14.349551 15.7556904,13.4465896 C15.8061267,13.21519 16.0620906,12.9674415 16.2865319,12.8467113 C16.7064137,12.6215997 17.1426873,12.6756768 17.4654793,12.9536078 C17.6747898,13.1334456 17.7895322,13.3988005 17.8223158,13.6729588 L17.9395801,14.6689831 C18.0454962,15.5669141 17.98119,16.4837093 17.6899206,17.3401393 C16.8388089,19.8503218 14.8818824,21.6185166 12.1255412,22.2888208 C12.1255412,22.2888208 9.76134196,22.6447235 7.30005291,22.1932427 M5.37212722,18.6958391 C6.30393695,18.6983543 7.07813341,17.9362448 7.09326428,16.9993279 C7.10713425,16.0800176 6.31528511,15.2864679 5.38599719,15.2877255 C4.44662201,15.2877255 3.66864284,16.0573807 3.66864284,16.9854943 C3.66864284,17.9211535 4.43653476,18.6945815 5.37212722,18.6958391 M16.1226141,17.130119 C16.1024396,16.6295916 15.801083,16.1806261 15.3723749,15.9215592 C14.3434754,15.2990439 13.1746153,16.1491859 13.1746153,17.1816809 C13.1746153,17.9915794 13.8340692,18.6555957 14.6435711,18.6618837 C15.4745083,18.6694293 16.1566586,17.9702001 16.1226141,17.130119 M4.80219758,12.4744598 C4.7858058,11.2193685 3.36854714,10.2422082 2.13033718,11.1074415 C1.8327633,11.3162042 1.59823473,11.6155145 1.48601407,11.9613563 C1.11152491,13.1170967 2.0143338,14.21876 3.12014861,14.2086991 C4.043132,14.2011535 4.81480664,13.4050886 4.80219758,12.4744598 M9.59364143,17.5602204 C8.95562285,17.6721474 8.42730312,18.1613563 8.25203715,18.7851291 C7.94185421,19.8968533 8.82070588,20.9255754 9.91769434,20.9255754 C10.8558086,20.9255754 11.6274833,20.153405 11.6249614,19.220261 C11.6199178,18.1940541 10.6666727,17.3703218 9.59364143,17.5602204 M5.37717084,6.27445977 C6.31024149,6.28703584 7.06552435,7.07052468 7.05291528,8.00869912 C7.04156713,8.9342975 6.24719617,9.69137661 5.31034281,9.6712549 C4.36970673,9.6511332 3.62325021,8.87896281 3.63585927,7.94078837 C3.64846834,7.01393239 4.43401295,6.26188371 5.37717084,6.27445977 Z M13.2080293,13.0642772 C12.4540073,11.1753523 12.6973622,9.12671129 14.2306243,8.14703584 C14.8787301,7.7332833 15.5495322,7.64147803 16.225378,8.05900338 C16.857092,8.450119 17.2051022,9.30026099 17.0701852,10.0397336 C16.9630082,10.6194902 16.6036499,10.9929993 16.0690256,11.1854131 C14.9796026,11.5740135 14.0250965,12.1512549 13.2799009,13.0466707 C13.2685528,13.061762 13.2332474,13.0592468 13.2080293,13.0642772 Z M17.4246259,8.48181068 L16.0237591,7.14623259 L20.9173363,1.5674902 C21.4103507,1.05312914 22.2349834,1.03552265 22.7506941,1.52598918 C23.2651438,2.01771332 23.2840574,2.84018796 22.7910431,3.35454902 L17.4246259,8.48181068 Z"/>
</svg>
