<svg xmlns="http://www.w3.org/2000/svg" width="24" height="24" viewBox="0 0 24 24">
<path class="icon" fill="#363636" fill-rule="evenodd" d="M12.1645849,15.7268105 L20.2973701,15.7268105 C23.9704092,15.7268105 23.8955676,19.9049274 23.8955676,19.9049274 L12.1645849,19.9049274 L0.433602225,19.9049274 C0.433602225,19.9049274 0.358760644,15.7268105 4.03179979,15.7268105 L12.1645849,15.7268105 Z M21.2906745,14.7766019 L3.02004604,14.7766019 C3.02004604,9.61641084 7.1096453,5.43295329 12.1553603,5.43295329 C17.2004951,5.43295329 21.2906745,9.61641084 21.2906745,14.7766019 Z M13.5596552,3.08279958 C13.5596552,3.85303049 12.9493192,4.47728543 12.1962621,4.47728543 C11.4432049,4.47728543 10.8328689,3.85303049 10.8328689,3.08279958 C10.8328689,2.31256868 11.4432049,1.68831373 12.1962621,1.68831373 C12.9493192,1.68831373 13.5596552,2.31256868 13.5596552,3.08279958 Z"/>
</svg>
