<svg xmlns="http://www.w3.org/2000/svg" width="24" height="24" viewBox="0 0 24 24">
<path class="icon" fill="#363636" fill-rule="evenodd" d="M20.55525,4.35860435 L19.61025,4.35860435 C18.94425,2.72283446 18.92775,2 17.28225,2 L12.5745,2 C10.929,2 10.8915,2.76566353 10.2465,4.35860435 L8.55525,4.35860435 L8.55525,3.50953684 C8.55525,3.31943588 8.4015,3.16465012 8.211,3.16465012 L4.85175,3.16465012 C4.66125,3.16465012 4.5075,3.31943588 4.5075,3.50953684 L4.5075,4.35860435 L3.4455,4.35860435 C1.54275,4.35860435 -1.73472348e-18,5.90345638 -1.73472348e-18,7.80972565 L-1.73472348e-18,18.0488787 C-1.73472348e-18,19.955148 1.54275,21.5 3.4455,21.5 L20.55525,21.5 C22.458,21.5 24,19.955148 24,18.0488787 L24,7.80972565 C24,5.90345638 22.458,4.35860435 20.55525,4.35860435 M15,18.5 C12.1006744,18.5 9.75,16.1494795 9.75,13.2503437 C9.75,10.351208 12.1006744,8 15,8 C17.8993256,8 20.25,10.351208 20.25,13.2503437 C20.25,16.1494795 17.9000131,18.5 15,18.5 M15,9.5 C12.9287791,9.5 11.25,11.1787791 11.25,13.25 C11.25,15.3212209 12.9287791,17 15,17 C17.0712209,17 18.75,15.3212209 18.75,13.25 C18.75,11.1787791 17.0712209,9.5 15,9.5"/>
</svg>
